<?xml version="1.0" encoding="UTF-8" standalone="no"?>
<!-- created by svgstack.com | Attribution is required. -->

<svg
   width="200.00031"
   height="168.83398"
   version="1.1"
   id="svg23"
   sodipodi:docname="ai-agent.svg"
   inkscape:version="1.4 (86a8ad7, 2024-10-11)"
   xmlns:inkscape="http://www.inkscape.org/namespaces/inkscape"
   xmlns:sodipodi="http://sodipodi.sourceforge.net/DTD/sodipodi-0.dtd"
   xmlns="http://www.w3.org/2000/svg"
   xmlns:svg="http://www.w3.org/2000/svg">
  <defs
     id="defs23" />
  <sodipodi:namedview
     id="namedview23"
     pagecolor="#ffffff"
     bordercolor="#000000"
     borderopacity="0.25"
     inkscape:showpageshadow="2"
     inkscape:pageopacity="0.0"
     inkscape:pagecheckerboard="0"
     inkscape:deskcolor="#d1d1d1"
     inkscape:zoom="1.2470703"
     inkscape:cx="99.833986"
     inkscape:cy="88.607674"
     inkscape:window-width="2496"
     inkscape:window-height="1558"
     inkscape:window-x="-11"
     inkscape:window-y="-11"
     inkscape:window-maximized="1"
     inkscape:current-layer="svg23" />
  <path
     fill="#208de6"
     d="m 63.888829,0.03688638 c 21.40508,-0.95762 40.361591,16.85788962 38.733861,38.59948962 h 13.83885 c -0.0385,-2.95601 -0.003,-5.91683 0,-8.87381 -10.7023,-5.17976 -4.85239,-19.52917 5.17446,-16.66054 8.0573,2.30463 8.48626,12.24675 0.27586,16.66054 v 8.87381 c 1.83668,0.079 3.69405,0.008 5.53362,0.006 l 10.45099,-0.006 v -21.30831 c -11.67143,-7.25013 -3.90299,-18.4105096 4.13119,-16.77824962 8.7159,1.77081002 9.40099,11.54552962 1.2681,16.77824962 v 21.30831 h 16.99225 c 0.005,-2.95119 -0.0973,-5.92502 0,-8.87381 -3.77108,-2.06439 -6.69387,-5.05844 -5.97942,-9.73173 1.68358,-11.0146496 18.87659,-8.38322 16.68317,3.09371 -0.62442,3.26557 -2.75814,4.86249 -5.34489,6.63802 v 8.87381 l 19.49378,0.005 c 8.34953,-0.006 14.82965,-1.10971 14.8595,9.70332 v 68.538544 c 0.0188,15.36789 -1.60848,15.75207 -15.19361,15.75351 l -15.19698,-0.005 c -5.98039,-0.001 -11.9834,0.1218 -17.9609,0 1.03605,6.49745 2.83036,12.85432 3.74605,19.39076 5.16146,0.20124 9.21563,-0.82374 13.71319,2.52753 2.62864,1.95896 4.62515,4.67137 5.08925,7.97016 1.01583,7.22105 -1.22188,6.25577 -6.898,6.25432 l -154.119971,9.7e-4 c -3.2543101,-4.9e-4 -6.6101001,0.1632 -9.8541101,-0.0549 -4.46627,-0.30041 -3.14674997,-4.6314 -3.13172997,-8.26864 l 0.006,-23.79782 c -0.0142,-11.54385 1.34266997,-21.18603 13.51441007,-26.88911 4.62259,-2.16549 13.87587,-3.87411 19.19332,-5.29579 l 11.6257,-3.1274 c 1.88385,-0.49299 3.93476,-1.20455 5.87399,-1.358614 -0.0274,-1.91611 0.311,-4.77776 0,-6.56918 -0.86755,-0.79822 -1.96619,-1.31528 -2.97335,-1.91659 -7.50172,-4.47735 -13.53843,-12.20197 -16.14685,-20.4918 -0.65042,-2.06728 -0.9595,-4.20967 -1.54926,-6.28995 -13.29035,-1.66962 -16.85908,-21.69154 0,-26.07934 -0.92291,-20.79077 13.90192,-36.4942696 34.15108,-38.59948962 z M 138.32976,44.094886 h -27.41965 c 2.09184,3.61317 3.57947,6.89752 2.43606,11.15485 -1.37594,5.12103 -5.81044,8.56618 -11.05664,8.71975 -0.36252,10.58195 -7.316851,21.64436 -16.395271,27.14668 -1.30661,0.79196 -2.68833,1.45249 -3.96269,2.29789 v 6.56918 l 23.433851,6.073314 c 6.80605,1.7789 13.09407,2.70374 18.35519,7.81032 h 11.97281 l 52.22271,0.003 c 2.15779,4.8e-4 4.3488,0.0842 6.50226,-0.003 l 9.6e-4,-58.537694 c -9.6e-4,-2.78173 0.091,-5.59813 -0.0491,-8.37456 -0.21616,-4.29537 -5.24186,-2.86213 -9.04038,-2.8631 z m -103.226411,21.0262 0.0944,0.2229 c 0.87043,2.08317 1.30998,4.30499 2.19101,6.39298 10.81255,25.62486 46.70257,26.76153 57.74428,0.0308 0.89355,-2.16261 1.47656,-4.38491 2.04995,-6.64669 -1.16411,0.12373 -2.42162,0.0164 -3.59391,0 -0.9595,4.57844 -9.39858,2.8809 -13.4383,2.88139 l -32.55319,4.8e-4 c -2.73744,-4.8e-4 -8.62009,1.23488 -8.61961,-2.88187 -1.30132,-0.0583 -2.57231,-0.0756 -3.87459,0 z m 20.90824,30.26637 V 100.923 c 3.22995,2.71241 6.98225,4.87357 10.43173,7.30289 2.23386,-1.93007 4.6603,-3.56021 6.98852,-5.36704 1.09863,-0.80544 2.14816,-1.60558 3.1144,-2.5723 v -4.899094 c -6.70158,2.32389 -13.822,2.27623 -20.53465,0 z m 7.26678,34.699434 c 0.38274,4.54668 -1.44671,14.07476 -1.88434,19.09324 h 7.92635 1.71872 c -0.44869,-5.4354 -2.2897,-14.18067 -2.07691,-19.09324 -1.87374,0.11892 -3.81152,0.16803 -5.68382,0 z m 16.55703,-24.99947 c -3.37341,2.11735 -6.42667,4.75224 -9.75098,6.9601 2.72636,1.93489 5.45032,3.86978 7.9196,6.1306 0.3683,0.29945 0.73034,0.59601 1.12608,0.85984 1.83475,-4.32954 5.381,-7.87002 7.51087,-12.05465 -0.78426,-0.34567 -6.02709,-1.80105 -6.80557,-1.89589 z m -28.36085,0 c -1.96233,0.55991 -3.94922,0.9932 -5.78974,1.89589 2.69218,3.91695 4.99681,7.95619 7.36499,12.05465 0.64994,-0.66294 1.28062,-1.27773 2.02299,-1.83523 l 0.18776,-0.14299 c 2.33207,-1.67058 4.63815,-3.38111 6.99766,-5.01222 -1.48667,-1.00475 -9.46983,-6.96347 -10.78366,-6.9601 z M 29.465259,44.094886 c -5.17287,2.99164 -7.8937,8.22821 -3.11199,13.09889 1.03893,0.95709 2.06872,1.4289 3.38448,1.87808 l 0.003,-10.09859 c -4.8e-4,-1.07311 0.46748,-4.07053 -0.27586,-4.87838 z m 36.97806,71.926884 c -2.03406,1.0943 -4.05512,2.54438 -5.75748,4.10472 1.27244,2.80387 2.95024,4.54282 6.1046,4.4629 2.38455,-0.61528 4.02528,-2.30463 5.06518,-4.4629 -1.62725,-1.40917 -3.56118,-2.41825 -5.14847,-3.86785 z M 102.62269,45.101566 c -0.41837,4.15094 0.21809,9.17134 0,13.53411 6.80749,-1.45683 7.42421,-10.08655 2.54534,-12.2506 -0.78377,-0.53199 -1.68502,-0.89306 -2.54534,-1.28351 z"
     id="path1"
     style="stroke-width:0.481435" />
  <path
     fill="#a0d0f7"
     d="m 161.87001,18.327526 c 4.45087,-0.30523 5.41085,4.25925 1.55744,6.2731 -4.04309,0.49539 -5.39303,-4.88657 -1.55744,-6.2731 z"
     id="path2"
     style="stroke-width:0.481435" />
  <path
     fill="#a0d0f7"
     d="m 118.38824,18.327526 c 4.35265,-0.38371 6.14648,4.56496 1.66432,6.2731 -4.34351,0.70337 -5.41903,-4.67666 -1.66432,-6.2731 z"
     id="path3"
     style="stroke-width:0.481435" />
  <path
     fill="#a0d0f7"
     d="m 139.92331,5.6475364 c 4.48746,0.53083 5.32901,5.5484896 1.1617,6.6312396 -4.59192,0.0871 -5.36126,-4.8113696 -1.1617,-6.6312396 z"
     id="path4"
     style="stroke-width:0.481435" />
  <path
     fill="#a0d0f7"
     d="m 102.62269,45.101566 c 0.86032,0.39045 1.76157,0.75152 2.54534,1.28351 4.87887,2.16405 4.26215,10.79377 -2.54534,12.2506 0.21809,-4.36277 -0.41837,-9.38317 0,-13.53411 z m 0,0 c 0.12469,1.46597 0.54017,2.10484 2.37058,1.49679 l 0.17476,-0.21328 c -0.78377,-0.53199 -1.68502,-0.89306 -2.54534,-1.28351 z"
     id="path5"
     style="stroke-width:0.481435" />
  <path
     fill="#a0d0f7"
     d="m 132.1101,157.65675 19.72006,-0.004 c 6.55811,0 14.44883,-1.91226 16.99514,5.68094 h -36.7152 z"
     id="path6"
     style="stroke-width:0.481435" />
  <path
     fill="#a0d0f7"
     d="m 137.59461,132.63176 h 8.55992 c 0.3033,5.14654 2.76921,13.94188 3.74171,19.39076 h -5.56202 -12.22412 c 0.21183,-3.17121 4.17164,-18.44426 4.80761,-19.24344 0.10881,-0.13673 0.50118,-0.12565 0.6769,-0.14732 z"
     id="path7"
     style="stroke-width:0.481435" />
  <path
     fill="#a0d0f7"
     d="m 128.79301,119.38459 h 65.62538 c -0.0265,2.1785 0.54209,4.98623 -0.84973,6.81905 -1.92574,1.66095 -5.57406,0.92098 -7.93983,0.92002 l -53.51873,-0.005 c -0.95565,-2.6893 -1.97773,-5.2072 -3.31709,-7.73426 z"
     id="path8"
     style="stroke-width:0.481435" />
  <path
     fill="#fefefe"
     d="M 5.6106389,154.74648 113.14878,154.746 c 4.48409,0 8.98165,-0.0838 13.46382,4.8e-4 v 8.58736 c -0.26961,0.1218 -20.24916,-0.001 -22.04106,-0.001 l -98.9609011,0.001 z"
     id="path9"
     style="stroke-width:0.481435" />
  <path
     fill="#a0d0f7"
     d="m 39.935029,108.22589 0.13962,0.01 c 0.78762,0.752 1.39712,2.09665 1.97147,3.04411 l 5.07144,8.43475 c 2.40862,4.07197 3.73016,8.07318 8.89403,3.40374 0.63116,1.35958 1.2811,2.5622 2.49865,3.4803 -0.53536,7.54697 -2.31137,14.97696 -2.49865,22.58171 h -31.04919 l 0.007,-9.61907 c 0.008,-1.65614 0.13143,-3.38016 -0.007,-5.02715 -0.63814,-0.81266 -1.65099,-1.70139 -2.72791,-1.72402 -3.51746,-0.0746 -2.78948,4.91208 -2.78727,7.06265 l 0.0103,9.30759 H 5.6106289 l -0.006,-12.53272 c -0.002,-18.2512 4.7623601,-20.79462 22.0654201,-25.22479 z"
     id="path10"
     style="stroke-width:0.481435" />
  <path
     fill="#a0d0f7"
     d="m 92.491849,108.5446 c 3.43311,0.79004 6.82771,1.71969 10.251201,2.54728 17.63689,4.26551 24.68654,7.45117 24.70339,27.30844 l -0.004,10.77981 h -13.66361 c -0.0111,-4.26985 0.13577,-8.57051 0.005,-12.83602 -0.0972,-3.1717 -2.85058,-4.12157 -4.8105,-1.8102 -0.9932,1.4212 -0.4901,4.01758 -0.48818,5.65734 l 0.012,8.98888 H 76.546229 c -0.43666,-2.21027 -0.55124,-4.49564 -0.81555,-6.73383 l -1.74665,-15.32745 c 0.87092,-1.05772 1.81164,-2.0875 2.5622,-3.23476 1.31865,1.23728 3.47403,2.30751 5.04014,0.7881 2.3003,-2.23193 8.519,-12.68773 10.90547,-16.12759 z"
     id="path11"
     style="stroke-width:0.481435" />
  <path
     fill="#208de6"
     d="m 35.103349,65.121086 c 0.30908,-2.49913 10e-4,-5.16147 -0.002,-7.69093 l -4.8e-4,-14.14071 c -0.001,-3.72919 -0.16706,-7.54071 0.33412,-11.24439 4.42053,-32.67956962 52.37917,-36.3236996 60.78406,-3.04845 1.12993,4.47301 0.97009,9.01102 0.97009,13.57984 l -0.008,14.95963 c -0.003,2.51598 -0.14444,5.07673 0.002,7.58501 -1.16411,0.12373 -2.42162,0.0164 -3.59391,0 -0.9595,4.57844 -9.39858,2.8809 -13.4383,2.88139 l -32.55319,4.8e-4 c -2.73744,-4.8e-4 -8.62009,1.23488 -8.61961,-2.88187 -1.30132,-0.0583 -2.57231,-0.0756 -3.87459,0 z"
     id="path12"
     style="stroke-width:0.481435" />
  <path
     fill="#a0d0f7"
     d="m 44.280459,35.757876 h 43.79663 v 26.63732 h -43.79663 l -9.6e-4,-17.70718 c 10e-4,-2.97334 0.0977,-5.95968 9.6e-4,-8.93014 z"
     id="path13"
     style="stroke-width:0.481435" />
  <path
     fill="#208de6"
     d="m 75.274289,44.094886 c 10.3186,1.22574 9.81164,12.96986 1.27195,14.54079 -10.08221,0.0212 -10.94687,-12.61842 -1.27195,-14.54079 z"
     id="path14"
     style="stroke-width:0.481435" />
  <path
     fill="#fefefe"
     d="m 75.735979,49.613576 c 2.47025,0.43233 1.94933,3.00271 0,3.71861 -2.39369,-0.37986 -2.24637,-3.2882 0,-3.71861 z"
     id="path15"
     style="stroke-width:0.481435" />
  <path
     fill="#208de6"
     d="m 56.011589,44.094886 c 11.16448,1.141 9.90264,12.72529 2.05814,14.54079 -9.56082,1.46308 -12.27275,-12.1495 -2.05814,-14.54079 z"
     id="path16"
     style="stroke-width:0.481435" />
  <path
     fill="#fefefe"
     d="m 56.305269,49.613576 c 2.65896,-0.34422 2.7201,2.45099 0.90076,3.71861 -2.47024,-0.0857 -2.79906,-2.5492 -0.90076,-3.71861 z"
     id="path17"
     style="stroke-width:0.481435" />
  <path
     fill="#a0d0f7"
     d="m 35.103349,65.121086 c 0.30908,-2.49913 10e-4,-5.16147 -0.002,-7.69093 l -4.8e-4,-14.14071 c -0.001,-3.72919 -0.16706,-7.54071 0.33412,-11.24439 4.42053,-32.67956962 52.37917,-36.3236996 60.78406,-3.04845 1.12993,4.47301 0.97009,9.01102 0.97009,13.57984 l -0.008,14.95963 c -0.003,2.51598 -0.14444,5.07673 0.002,7.58501 -1.16411,0.12373 -2.42162,0.0164 -3.59391,0 -0.23975,-2.02155 0.004,-5.82055 0.007,-8.05634 l -0.0173,-17.67925 c 0.003,-2.4067 1.22284,-8.3399 -2.07884,-9.01151 -2.07209,-0.42125 -6.80219,-0.14346 -9.14823,-0.15213 -0.0881,-2.32148 0.67401,-7.15461 -0.92195,-8.85311 -1.63976,-1.7452 -4.3565,-0.69663 -4.79894,1.48908 -0.35241,1.73846 -0.0953,5.41518 -0.0842,7.36403 h -7.58405 l 0.007,-8.23446 c 4.8e-4,-1.76302 0.50262,-4.9376 -0.76355,-6.38913 -1.43468,-1.6441 -4.43306,-1.14726 -4.86539,1.07553 -0.27345,1.40338 -0.0761,3.0263 -0.0717,4.45664 l 0.0101,9.09142 h -7.26678 c -0.013,-2.54823 1.33117,-10.6816 -3.46585,-9.69514 -0.96287,0.19787 -1.62388,0.86658 -2.13853,1.66192 -0.1661,2.64019 -0.008,5.38292 0,8.03322 -2.02396,-0.007 -9.49053,-0.41981 -10.69701,0.62153 -1.1954,1.0322 -0.75633,3.32046 -0.73997,4.71181 l 0.003,21.69442 c -0.003,2.52417 0.15262,5.11381 0.0188,7.62931 l -0.014,0.24216 c -1.30132,-0.0583 -2.57231,-0.0756 -3.87459,0 z"
     id="path18"
     style="stroke-width:0.481435" />
  <path
     fill="#208de6"
     d="m 172.64982,52.880116 c 5.69971,-0.65138 10.73552,4.01084 10.11736,9.88627 -0.90414,8.59169 -8.77704,7.25908 -10.16165,8.66727 -0.79533,0.80833 -0.29271,8.34087 -0.39911,9.95415 -2.89487,3.53181 -16.49204,-0.0279 -18.30224,1.75098 -0.013,1.08708 6.07716,7.96101 7.02607,8.74094 1.69369,0.0448 3.39989,0.002 5.09503,0 3.93091,-6.98033 14.45845,-6.61251 16.61191,1.6648 2.72926,10.490954 -14.19078,15.649054 -16.99032,3.81922 -2.48036,-0.0125 -4.97852,0.10785 -7.45599,0 -1.17422,-0.95661 -2.13131,-2.39321 -3.08792,-3.56984 l -5.20672,-6.38527 c -7.37992,1.93585 -9.11357,4.56064 -17.78614,0 -1.26714,2.04417 -3.0056,3.92225 -4.47927,5.83018 -4.1182,5.33045 -2.63923,4.17837 -10.10773,4.12493 -0.93543,2.04996 -2.01577,3.264624 -3.74412,4.696404 -6.57688,3.34694 -14.493121,-1.67202 -13.05122,-9.037014 0.92772,-4.74069 5.75941,-7.69334 10.40766,-6.70543 3.125,0.6639 4.73925,2.87369 6.38768,5.39833 h 4.38876 c 1.55745,-2.73407 4.09413,-5.65108 6.37998,-7.8368 -0.27297,-0.37552 -0.56232,-0.73804 -0.84925,-1.10297 -1.98977,-0.0554 -6.77042,0.72793 -8.19595,-0.86754 -3.33249,-3.72968 2.04706,-4.76043 5.20383,-4.33292 -0.60757,-1.83138 -0.81507,-3.19913 -0.72986,-5.12247 h -8.33652 l 0.0202,6.71554 c 0.01,2.2353 0.5782,5.8764 -2.7023,5.92406 -0.96046,0.014 -1.74328,-0.58061 -2.40092,-1.2137 -0.87765,-2.5646 -0.29849,-6.32269 -0.30089,-9.02354 -0.008,-7.68129 -1.20744,-7.70585 6.10315,-7.69718 l 8.34712,0.0111 c 3.60787,-13.47633 21.55048,-15.88446 30.43055,-3.9675 4.05272,-6.0449 3.50725,-4.53705 10.76585,-4.56641 1.68983,-3.09996 3.48414,-4.81147 7.00295,-5.75556 z m -11.71957,11.08937 c -1.24836,1.46453 -2.37877,2.9175 -3.0653,4.73444 l -0.0101,0.13432 c -0.21135,3.22272 0.29223,5.38244 -0.65427,8.73756 h 7.32359 2.04514 c -0.0236,-3.59584 -0.69905,-6.69195 1.75435,-9.57719 -1.47897,-1.17133 -2.03359,-2.31233 -2.67678,-4.02913 -1.57237,-0.01 -3.14426,-0.0173 -4.71662,0 z"
     id="path19"
     style="stroke-width:0.481435" />
  <path
     fill="#a0d0f7"
     d="m 108.9733,91.716036 c 3.86159,-0.36348 4.64296,4.74021 1.01245,6.02564 -4.42101,0.38034 -5.36174,-4.74021 -1.01245,-6.02564 z"
     id="path20"
     style="stroke-width:0.481435" />
  <path
     fill="#a0d0f7"
     d="m 173.57562,92.461776 c 4.44846,-0.24794 5.06229,4.51972 1.24547,6.20474 -4.46386,0.39814 -5.26112,-4.86972 -1.24547,-6.20474 z"
     id="path21"
     style="stroke-width:0.481435" />
  <path
     fill="#a0d0f7"
     d="m 173.57562,58.635676 c 4.45279,-0.93206 5.35067,5.26593 1.24547,6.48541 -4.63188,0.10784 -6.3299,-5.46622 -1.24547,-6.48541 z"
     id="path22"
     style="stroke-width:0.481435" />
  <path
     fill="#a0d0f7"
     d="m 139.54298,61.193536 c 15.48873,-1.41927 17.11598,21.69731 2.36721,22.6857 -2.73695,0.93639 -6.22495,-0.48577 -8.35434,-2.17657 -8.25998,-6.55811 -4.2347,-19.51882 5.98713,-20.50913 z"
     id="path23"
     style="stroke-width:0.481435" />
</svg>
