<?xml version="1.0" encoding="UTF-8" standalone="no"?>
<!-- created by svgstack.com | Attribution is required. -->

<svg
   width="199.99986"
   height="218.49899"
   version="1.1"
   id="svg29"
   sodipodi:docname="ai.svg"
   inkscape:version="1.4 (86a8ad7, 2024-10-11)"
   xmlns:inkscape="http://www.inkscape.org/namespaces/inkscape"
   xmlns:sodipodi="http://sodipodi.sourceforge.net/DTD/sodipodi-0.dtd"
   xmlns="http://www.w3.org/2000/svg"
   xmlns:svg="http://www.w3.org/2000/svg">
  <defs
     id="defs29" />
  <sodipodi:namedview
     id="namedview29"
     pagecolor="#ffffff"
     bordercolor="#000000"
     borderopacity="0.25"
     inkscape:showpageshadow="2"
     inkscape:pageopacity="0.0"
     inkscape:pagecheckerboard="0"
     inkscape:deskcolor="#d1d1d1"
     inkscape:zoom="1.2470703"
     inkscape:cx="100.63587"
     inkscape:cy="111.0603"
     inkscape:window-width="2496"
     inkscape:window-height="1558"
     inkscape:window-x="-11"
     inkscape:window-y="-11"
     inkscape:window-maximized="1"
     inkscape:current-layer="svg29" />
  <path
     fill="#20326b"
     d="m 41.029664,58.70867 c 0.974775,0.008 2.205366,0.331496 2.637053,1.305735 0.79624,1.79659 1.480015,8.676503 -1.963398,9.801566 -4.540243,-0.0176 -3.402917,-8.621071 -2.598157,-9.984366 0.376799,-0.638479 1.263639,-0.921479 1.924502,-1.122935 z"
     id="path1"
     style="stroke-width:0.532955" />
  <path
     fill="#1371b3"
     d="m 65.95168,90.716847 c -3.008534,7.56423 -12.155092,8.50649 -15.875113,1.88879 -5.457458,-9.70989 9.602238,-18.81542 15.875113,-7.08936 -1.668687,0.0645 -4.207676,-0.29792 -5.715403,0.3363 1.067503,1.71504 1.074967,2.69036 0.461536,4.4928 1.650558,0.37041 3.55854,0.25849 5.253867,0.37147 z"
     id="path2"
     style="stroke-width:0.532955" />
  <path
     fill="#e6b56c"
     d="m 57.085448,84.714717 c 1.153311,0.24676 2.135014,0.51271 3.150829,1.13786 1.067503,1.71504 1.074967,2.69036 0.461536,4.4928 -4.050453,5.19791 -10.551966,-3.2265 -3.612365,-5.63066 z"
     id="path3"
     style="stroke-width:0.532955" />
  <path
     fill="#1371b3"
     d="m 168.03484,85.516277 0.1098,-0.13376 c 3.39865,-4.20768 7.98045,-7.31801 13.19115,-3.20679 10.55037,8.32368 -6.54628,23.080133 -13.30095,8.54112 -0.11671,-1.64895 -0.17747,-3.56013 0,-5.20057 z"
     id="path4"
     style="stroke-width:0.532955" />
  <path
     fill="#e6b56c"
     d="m 175.77814,85.516277 c 4.03393,-1.20128 5.31569,5.21017 0.83354,6.33684 -4.46509,0.29952 -5.5294,-6.28514 -0.83354,-6.33684 z"
     id="path5"
     style="stroke-width:0.532955" />
  <path
     fill="#1371b3"
     d="m 164.8547,65.091863 c 0.59479,-0.685375 0.84154,-1.491206 1.22794,-2.295429 2.24906,-4.684675 8.4793,-6.286738 12.63741,-3.059693 9.41464,7.3068 -3.06929,21.403986 -12.11938,11.244804 -0.75734,-1.596734 -1.11494,-4.925035 -1.74597,-5.889682 z m 8.47079,-2.180317 c -4.23859,0.924143 -3.9492,7.193288 0.50684,6.904425 4.45762,-1.439511 4.22473,-6.656065 -0.50684,-6.904425 z"
     id="path6"
     style="stroke-width:0.532955" />
  <path
     fill="#1371b3"
     d="m 65.95168,128.35943 c -5.863571,11.64239 -19.967141,4.55516 -16.853088,-4.99911 2.618406,-8.03536 12.879379,-8.4825 16.853088,-0.36401 h 1.409126 c -6.648073,0.13111 -5.785754,5.39136 -1.409126,5.36312 z"
     id="path7"
     style="stroke-width:0.532955" />
  <path
     fill="#e6b56c"
     d="m 57.085448,122.27522 c 5.064667,-0.01 5.265587,5.58323 0.631551,7.26844 -4.449635,0.53774 -6.014921,-6.56388 -0.631551,-7.26844 z"
     id="path8"
     style="stroke-width:0.532955" />
  <path
     fill="#1371b3"
     d="m 130.54629,34.456045 c -3.10339,-8.545336 2.80815,-15.766498 10.54131,-12.203805 9.32777,4.297316 4.43098,18.577943 -5.36738,15.895049 -0.30485,-0.08368 -0.81595,-0.333631 -1.11974,-0.329367 -1.61112,-0.896432 -2.55552,-2.452654 -4.05419,-3.361877 z m 6.20679,-7.719849 c -3.91561,2.23575 -2.15686,7.250849 1.92717,6.644346 1.47628,-0.722688 2.14727,-1.723039 2.63013,-3.248357 -0.76213,-2.650382 -1.74969,-3.688789 -4.5573,-3.395989 z"
     id="path9"
     style="stroke-width:0.532955" />
  <path
     fill="#1371b3"
     d="m 153.6552,44.958979 c -0.35601,-0.613968 -1.13306,-0.857527 -1.68893,-1.254047 -6.85486,-4.886123 -2.66851,-15.951857 5.78681,-15.115122 9.55215,0.944399 10.34999,14.408963 0.98437,16.661761 -1.7225,0.177471 -3.37467,-0.07944 -5.08225,-0.292592 z m 2.87742,-11.578437 c -4.40274,1.889326 -3.95132,7.097353 0.83088,7.291881 1.89198,-0.657664 2.74897,-2.042814 3.33842,-3.839405 -0.81062,-1.97939 -1.81151,-3.652868 -4.1693,-3.452476 z"
     id="path10"
     style="stroke-width:0.532955" />
  <path
     fill="#1371b3"
     d="m 166.60067,107.45962 c 4.94262,-8.382843 19.62391,0.35282 13.62124,9.68005 -4.07656,6.33417 -14.17392,4.70279 -15.46101,-2.7607 -0.0927,-0.53988 -0.0437,-1.12134 -0.19825,-1.64257 0.16361,-2.15846 0.65393,-3.57719 2.03802,-5.27678 z"
     id="path11"
     style="stroke-width:0.532955" />
  <path
     fill="#e6b56c"
     d="m 172.66941,109.0329 c 4.02488,0.11832 5.45799,6.08101 1.16292,7.04139 -1.85469,0.0943 -2.96536,-0.28033 -4.15119,-1.83443 -0.23237,-2.73085 0.37893,-4.027 2.98827,-5.20696 z"
     id="path12"
     style="stroke-width:0.532955" />
  <path
     fill="#1371b3"
     d="m 155.78861,129.92525 0.12952,0.008 c 0.93746,0.0501 1.90158,-0.0927 2.82839,0.002 7.32333,0.75253 10.23219,10.16185 4.57701,15.03359 -7.43099,6.40077 -18.38959,-3.44663 -12.10873,-12.18761 0.11299,-0.0352 4.24605,-2.64985 4.57381,-2.85664 z m 1.57489,4.98099 c -4.87334,1.5088 -3.43276,7.54024 1.37395,7.18317 1.71878,-0.80744 2.33488,-1.88933 2.87902,-3.58839 -0.66672,-2.18991 -1.79339,-3.70137 -4.25297,-3.59478 z"
     id="path13"
     style="stroke-width:0.532955" />
  <path
     fill="#1371b3"
     d="m 98.15599,40.672423 c -4.28282,1.306271 -9.16415,-0.07832 -10.9373,-4.516252 -4.51785,-11.307965 12.29047,-16.557088 15.95506,-6.58945 1.01582,2.763366 0.40985,5.202163 -0.82448,7.757153 -1.31533,1.271095 -2.53633,2.521406 -4.19328,3.348549 z"
     id="path14"
     style="stroke-width:0.532955" />
  <path
     fill="#e6b56c"
     d="m 94.85754,29.260802 c 2.22775,0.129511 3.28778,1.257238 4.00035,3.3315 -0.49618,1.747559 -1.1192,3.103398 -3.0128,3.597973 -5.23787,0.190264 -5.64718,-5.739387 -0.98755,-6.929473 z"
     id="path15"
     style="stroke-width:0.532955" />
  <path
     fill="#1371b3"
     d="M 65.2162,50.13503 C 58.73707,63.644897 42.499551,50.536878 50.877063,41.248014 55.568657,36.046915 65.341976,39.18548 65.2162,44.958979 l -0.259015,0.152424 c 0.08048,1.687334 0.280335,3.313909 0.259015,5.023627 z m -8.130752,-6.463138 c -4.877603,0.772247 -4.197019,7.079233 0.631551,7.163977 3.942797,-1.192759 3.861789,-7.132001 -0.631551,-7.163977 z"
     id="path16"
     style="stroke-width:0.532955" />
  <path
     fill="#1371b3"
     d="m 126.21923,156.68063 c 0.23184,1.35957 9.6614,5.35726 4.87121,13.43472 -5.95364,10.03979 -21.31338,0.68431 -14.83745,-9.48233 1.61912,-2.54219 4.28282,-2.83052 4.75395,-3.41144 l 0.12738,0.0869 c 0.56973,0.0389 4.67987,0.0922 4.98046,0.0144 z"
     id="path17"
     style="stroke-width:0.532955" />
  <path
     fill="#e6b56c"
     d="m 122.34359,162.09385 c 2.83958,-0.27128 4.34252,0.64274 4.76408,3.51803 -0.20892,1.86907 -0.66459,2.7655 -2.47291,3.61769 -5.04654,0.72216 -6.45354,-4.682 -2.29117,-7.13572 z"
     id="path18"
     style="stroke-width:0.532955" />
  <path
     fill="#1371b3"
     d="m 105.52355,139.63994 c 8.35033,8.0652 -3.55747,20.50223 -11.77989,12.95133 -6.20146,-5.69462 -2.12649,-15.22384 5.91899,-15.40079 2.17232,0.41891 3.93214,1.415 5.8609,2.44946 z"
     id="path19"
     style="stroke-width:0.532955" />
  <path
     fill="#e6b56c"
     d="m 99.66265,142.08941 c 4.29135,0.54627 5.30076,5.97601 0,7.63456 -3.91188,0.29686 -5.84225,-6.05756 0,-7.63456 z"
     id="path20"
     style="stroke-width:0.532955" />
  <path
     fill="#20326b"
     d="m 106.93215,0.07941375 c 23.84278,-1.06180698 48.28834,8.58419185 65.18939,25.34198325 34.05046,33.761073 37.83124,86.642413 6.23717,123.336333 -3.98597,4.62978 -8.57737,8.47025 -12.86393,12.75839 -2.64718,13.14853 -0.1295,31.09257 4.81951,43.17198 0.97477,2.37858 5.40309,10.10002 5.35939,10.97353 -0.186,3.72216 -10.41819,2.80707 -13.62445,2.54913 -1.23005,-0.84474 -1.48321,-1.53012 -1.80564,-2.93392 1.15331,-3.59424 4.82003,-2.37271 7.79125,-2.47984 -1.05791,-3.13217 -2.75004,-6.10872 -3.9316,-9.21957 -3.31018,-8.71275 -8.21016,-38.38498 -2.78575,-45.5303 1.07657,-1.41819 2.88968,-2.47291 4.21673,-3.69125 C 204.93342,118.1848 204.63869,58.895734 162.96698,24.201838 146.65538,10.621947 124.64383,3.8785297 103.55428,5.8137927 99.01724,2.6055637 102.4889,0.43553375 106.93215,0.07941375 Z"
     id="path21"
     style="stroke-width:0.532955" />
  <path
     fill="#20326b"
     d="m 90.41749,2.4773397 c 1.39367,-0.14864 2.09504,0.659847 2.74738,1.804262 0.18067,3.8293319 -2.43774,3.6577729 -5.52727,4.5953959 -4.04993,1.2291014 -8.2512,2.8704924 -11.88329,5.0670664 -6.23557,3.770764 -3.570796,2.429798 -10.699598,4.386908 -19.399004,5.325819 -34.550902,23.706346 -37.883995,43.208751 -0.953991,5.581098 -1.015279,11.160594 -1.004087,16.804054 0.024,11.51715 1.807246,9.02825 -4.12454,17.82786 -4.86054,7.210353 -11.28147,15.872993 -15.4583368,23.407903 -4.7894519,8.63919 11.4952918,1.15704 16.9618068,7.0707 5.03642,5.44786 -1.192759,11.00978 -1.094159,13.75929 0.0272,0.76425 3.413573,0.46261 10.764614,0.41784 1.89359,-0.0118 4.902652,-0.50844 6.467402,0.85859 1.139455,0.99609 0.877775,2.95203 -0.155088,3.92734 -1.198615,1.13199 -4.126668,0.61769 -5.614146,0.61183 l -8.087577,-0.0144 c -0.610767,1.46456 -1.129335,2.98348 -1.715582,4.46083 7.937824,7.50826 5.920058,4.93036 1.246575,12.24676 -2.512878,3.93373 0.156159,9.23983 4.25138,10.7369 2.762837,1.00995 6.083674,0.67365 8.989343,0.67312 l 17.265063,-0.009 c 9.188135,-0.006 17.164328,-0.58624 21.460475,10.01902 0.96305,2.37644 1.15491,5.32101 1.57009,7.85521 l 1.91224,11.73619 c 0.46047,2.9563 0.82661,5.95364 1.51945,8.86676 h 61.1448 c 1.72464,0.0128 5.01883,-0.3608 6.41677,0.68112 2.29917,1.71345 0.48979,4.53437 -1.88452,4.72517 -2.49263,0.20092 -5.167,0.005 -7.68308,0.006 l -44.27359,0.004 c -4.95381,0 -9.92361,0.0821 -14.87636,-0.0245 -4.77581,-0.10232 -3.92148,-3.41623 -4.58234,-7.11973 L 74.171968,196.74975 C 71.854146,182.77195 72.20377,179.65523 57.855567,179.6579 l -16.716119,-0.005 c -3.523357,0.005 -8.190441,0.3752 -11.533133,-0.37946 -10.342511,-2.33381 -13.940971,-13.98206 -6.651274,-22.05153 -5.474507,-5.48303 -5.907955,-3.80369 -2.647182,-11.6669 -6.18893,-3.91029 -2.341269,-8.54486 0,-13.50667 -1.671342,-5.83798 -10.8741339,-0.0981 -16.7034877,-3.73387 -7.3499209,-4.58395 -1.653918,-11.60456 1.255055,-16.10749 3.8103078,-5.8982 7.6749687,-11.82786 11.6327967,-17.626943 5.81581,-8.52193 4.419476,-5.61041 4.408284,-16.46296 C 20.883467,61.994667 21.702602,52.4857 30.874217,37.891273 38.227387,26.190044 51.206958,16.24351 64.752529,12.916809 70.24782,11.567314 69.903532,11.018003 74.673479,8.4260296 79.57133,5.7644567 84.98562,3.7236187 90.41749,2.4776757 Z"
     id="path22"
     style="stroke-width:0.532955" />
  <path
     fill="#20326b"
     d="m 130.54629,34.456045 c 1.49867,0.909223 2.44307,2.465445 4.05419,3.361877 -2.64292,2.623197 -5.63226,5.129155 -7.94422,8.051872 V 56.61416 c 6.1535,-0.0086 13.43259,-1.638839 17.97442,2.774029 3.07621,-3.013325 6.15456,-6.041578 9.02452,-9.253159 0.0581,-1.72091 0.0118,-3.454077 0,-5.176051 1.70758,0.213184 3.35975,0.470063 5.08225,0.292592 0.007,2.412685 0.0815,4.845619 0,7.255641 -3.89163,4.371292 -8.40096,8.179248 -12.2702,12.584651 v 6.111386 c 2.09344,0.238232 10.64256,0.239832 12.66352,0 1.94529,-1.94155 3.96945,-3.99662 5.72393,-6.111386 0.63103,0.964647 0.98863,4.292948 1.74597,5.889682 -1.36863,1.599927 -3.75573,4.319062 -5.41376,5.508622 -4.89891,0.11138 -9.81808,-0.002 -14.71966,0 -0.004,2.99573 -0.11512,6.03571 0,9.02611 h 21.56759 c -0.17747,1.64044 -0.11671,3.55162 0,5.20057 h -21.56759 v 7.72624 c 3.62835,8e-4 7.27002,-0.0885 10.89625,0 2.88061,3.084213 5.9483,6.365613 9.23717,9.016533 -1.38409,1.69959 -1.87441,3.11832 -2.03802,5.27678 -2.31249,-1.92503 -7.37929,-6.55481 -8.77404,-9.03784 h -9.32136 c 0.60383,5.21976 -1.35105,8.55552 -6.15669,10.5413 4.674,4.89519 10.46189,11.26613 15.47805,15.68539 -0.32776,0.20678 -4.46082,2.82146 -4.57381,2.85664 L 138.59391,120.0075 c -1.72357,-1.72358 -3.3752,-3.77172 -5.33168,-5.21389 h -7.043 l 0.002,27.81649 c 5.4e-4,4.68573 0.0917,9.38746 -0.002,14.07053 l -0.10445,0.64221 c -0.30059,0.0778 -4.41073,0.0245 -4.98046,-0.0144 l -0.12738,-0.0869 c -0.1732,-4.66282 -0.005,-9.40185 -0.004,-14.0732 l 0.004,-28.35477 h -12.20519 c -8e-4,2.55712 0.27554,18.79197 -0.16308,19.9602 -0.68485,1.82378 -2.3029,3.11513 -3.11512,4.88614 -1.92876,-1.03447 -3.68858,-2.03056 -5.8609,-2.44947 1.28016,-1.48427 2.55072,-2.97761 3.89163,-4.40859 V 114.7936 h -6.25582 c -3.33736,2.85876 -10.42139,12.03571 -13.37449,13.56582 -2.00177,0.12631 -4.07018,0.015 -6.07995,0.0106 l -11.89234,-0.0106 c -4.376628,0.0282 -5.238947,-5.23201 1.409126,-5.36312 H 82.32564 c 2.12489,-2.56191 6.04424,-6.89697 8.7154,-8.75644 -5.01243,-2.61841 -5.40469,-5.76017 -5.15313,-11.22403 H 74.605792 c -2.246934,2.17979 -8.513417,10.48962 -11.238414,8.62748 -3.053293,-2.08652 0.04904,-4.63245 1.482679,-6.13218 2.431877,-2.54379 5.030563,-5.00231 7.282825,-7.705463 H 85.88791 v -7.08882 c -6.63955,-0.097 -13.294557,-8e-4 -19.93623,0 -1.695327,-0.11299 -3.603309,-8e-4 -5.253867,-0.37148 0.613431,-1.80244 0.605967,-2.77775 -0.461536,-4.4928 1.507727,-0.63421 4.046716,-0.27181 5.715403,-0.3363 2.238942,0.081 4.505595,0.008 6.746665,0.007 l 13.189565,-0.007 c 0.20092,-2.95629 0.005,-6.05649 0,-9.02611 -5.30503,-0.16362 -10.66336,0.26754 -15.956658,0 -2.614678,-2.1654 -5.451059,-5.860907 -8.144617,-8.369521 -2.715933,-0.01544 -10.890388,1.556759 -9.963581,-3.362413 0.168952,-0.895894 0.855927,-1.362757 1.561558,-1.846685 1.214071,-0.10552 2.471845,-0.02344 3.691772,-0.0176 l 6.912425,0.0176 c 2.102502,2.273053 5.826787,6.468473 8.144073,8.291703 H 85.88791 c 0.0426,-2.931781 -0.0213,-5.867826 0,-8.80067 -3.85167,-4.136797 -7.89732,-8.082257 -11.703686,-12.267549 -2.980277,-0.089 -5.984547,-0.004 -8.968024,0 0.02136,-1.709718 -0.178536,-3.336293 -0.259015,-5.023627 L 65.2162,44.958971 c 0.434888,0.31924 9.81329,-0.01496 10.89572,0 4.40541,4.186892 8.41643,8.801744 12.69232,13.122404 2.92805,-1.787527 6.29419,-1.481079 9.58998,-1.474687 l 9.07514,0.0072 v -6.707234 c -3.00906,-3.133237 -6.09326,-6.31977 -9.31337,-9.234503 1.65695,-0.827143 2.87795,-2.077454 4.19328,-3.348549 2.83905,3.507901 7.77155,7.201809 10.13254,10.820038 0.17693,2.787885 0.009,5.670635 0,8.470248 2.95096,0.0592 5.91259,0.0048 8.86463,0 0.0986,-1.723046 0.0154,-3.472733 0.005,-5.199507 l -0.005,-7.742761 c 2.91472,-3.145493 6.10712,-6.231306 9.19985,-9.215847 z m -34.2194,27.354422 c -2.21016,0.0144 -3.9913,-0.426896 -5.28585,1.651095 l -0.009,38.876898 c -0.01,7.35318 0.11192,7.25404 6.8005,7.24445 l 38.9206,-0.0122 c 1.98525,-0.0538 3.38319,-0.47487 4.5573,-2.11103 l 0.003,-27.607053 c 0,-2.0652 0.53402,-16.178898 -0.61236,-17.222425 -1.52746,-1.388878 -5.19685,-0.831407 -7.07977,-0.828743 z"
     id="path23"
     style="stroke-width:0.532955" />
  <path
     fill="#20326b"
     d="m 99.97656,69.815971 c 1.84029,0.09646 3.70297,-0.01544 5.54699,0 v 5.646646 c -1.87813,-0.14656 -3.67259,-0.15508 -5.54699,0 z"
     id="path24"
     style="stroke-width:0.532955" />
  <path
     fill="#20326b"
     d="m 99.97656,96.224407 c 1.9309,-0.15562 3.6129,-0.23397 5.54699,0 0.0416,1.73689 0.002,3.48285 0,5.220823 -1.84935,0 -3.69711,0.0527 -5.54699,0 -0.0266,-1.738503 -8e-4,-3.481793 0,-5.220823 z"
     id="path25"
     style="stroke-width:0.532955" />
  <path
     fill="#20326b"
     d="m 99.97656,82.542397 h 5.54699 c -0.0362,1.85841 -0.0474,3.70883 0,5.56778 h -5.54699 z"
     id="path26"
     style="stroke-width:0.532955" />
  <path
     fill="#19bedd"
     d="m 130.54629,69.815971 h 2.03695 v 5.646646 h -3.23342 -2.24215 c 0.04,-1.88292 -0.0698,-3.763184 0,-5.646646 1.14479,0.02928 2.29331,0.0064 3.43862,0 z"
     id="path27"
     style="stroke-width:0.532955" />
  <path
     fill="#19bedd"
     d="m 113.71933,69.815971 c 1.79659,-0.06128 3.57132,-0.0512 5.36738,0 0.0496,1.878134 0.004,3.767456 0,5.646646 -1.49228,0.2878 -3.80636,0.0389 -5.36738,0 z"
     id="path28"
     style="stroke-width:0.532955" />
  <path
     fill="#20326b"
     d="m 132.58324,96.224407 c 1.30308,-0.0607 0.68272,3.786113 0.67899,5.220823 h -19.5429 c -1.77208,0.0181 -0.8442,-3.415173 -0.83195,-5.220823 z"
     id="path29"
     style="stroke-width:0.532955" />
</svg>
