<?xml version="1.0" encoding="UTF-8" standalone="no"?>
<!-- created by svgstack.com | Attribution is required. -->

<svg
   width="200.00017"
   height="154.315"
   version="1.1"
   id="svg18"
   sodipodi:docname="graduation-cap.svg"
   inkscape:version="1.4 (86a8ad7, 2024-10-11)"
   xmlns:inkscape="http://www.inkscape.org/namespaces/inkscape"
   xmlns:sodipodi="http://sodipodi.sourceforge.net/DTD/sodipodi-0.dtd"
   xmlns="http://www.w3.org/2000/svg"
   xmlns:svg="http://www.w3.org/2000/svg">
  <defs
     id="defs18" />
  <sodipodi:namedview
     id="namedview18"
     pagecolor="#ffffff"
     bordercolor="#000000"
     borderopacity="0.25"
     inkscape:showpageshadow="2"
     inkscape:pageopacity="0.0"
     inkscape:pagecheckerboard="0"
     inkscape:deskcolor="#d1d1d1"
     inkscape:zoom="1.2470703"
     inkscape:cx="2.8065779"
     inkscape:cy="-70.966327"
     inkscape:window-width="2496"
     inkscape:window-height="1558"
     inkscape:window-x="-11"
     inkscape:window-y="-11"
     inkscape:window-maximized="1"
     inkscape:current-layer="svg18" />
  <path
     fill="#d7ae2b"
     d="m 161.39288,146.97664 c 1.27919,0.4896 5.48356,2.7306 6.65947,2.30193 1.29119,-0.55219 3.79122,-1.83727 5.11206,-1.97914 1.56482,0.85123 4.62623,0.92864 5.4791,2.72167 0.16963,0.35644 0.1741,0.74018 0.0306,1.1065 -0.29198,0.74489 -1.10321,1.20155 -1.78786,1.52859 -4.80103,2.29299 -12.90439,2.04572 -17.84259,0.25433 -1.07027,-0.38844 -2.72119,-0.99639 -3.18469,-2.12642 -0.14493,-0.35339 -0.12352,-0.73571 0.044,-1.07733 0.73359,-1.49612 4.02344,-2.29746 5.48992,-2.73013 z"
     id="path1"
     style="stroke-width:0.235276" />
  <path
     fill="#0b0e2c"
     d="m 172.15132,57.552418 c 3.64559,-1.290022 7.57846,-3.375499 11.09888,-5.037257 l 16.74997,-7.743149 -0.06,6.282095 q -8.3064,3.942274 -16.65774,7.788325 c -3.72771,1.734685 -7.41612,3.581123 -11.21935,5.144296 0.10658,-2.141245 0.0816,-4.290721 0.0882,-6.43431 z"
     id="path2"
     style="stroke-width:0.235276" />
  <path
     fill="#f45a35"
     d="m 163.20003,119.95948 c 1.41635,0.97733 2.76072,1.64622 4.51141,1.74151 0.30515,3.75146 0.0525,26.88069 0.34091,27.57758 -1.17591,0.42867 -5.38028,-1.81233 -6.65947,-2.30193 l -5.0869,-2.26994 c 0.73359,-2.9306 1.63422,-5.81625 2.45252,-8.72355 q 1.68715,-6.12658 3.28867,-12.27621 c 0.47832,-1.20602 0.74112,-2.51321 1.15286,-3.74746 z"
     id="path3"
     style="stroke-width:0.235276" />
  <path
     fill="#dd3d26"
     d="m 168.77111,109.70193 c 1.25026,0.29999 2.1963,0.85006 3.13975,1.70575 1.11921,1.54882 1.71517,3.11152 1.40107,5.06713 -0.16869,1.04862 -0.62207,2.00784 -1.14838,2.91977 l -0.65124,0.43855 c 1.66693,4.72833 2.56238,9.84628 3.69265,14.73225 0.82911,3.58419 1.89255,7.16367 2.6045,10.76809 l -4.64505,1.96596 c -1.32084,0.14187 -3.82087,1.42695 -5.11206,1.97914 -0.28845,-0.69689 -0.0358,-23.82612 -0.34091,-27.57758 -1.75069,-0.0953 -3.09506,-0.76418 -4.51141,-1.74151 -1.12509,-1.28084 -1.85727,-2.87154 -1.89091,-4.59305 -0.0343,-1.75751 0.64653,-3.30069 1.84032,-4.55752 0.78253,-0.50561 1.52718,-0.76488 2.41769,-1.00087 q 1.60058,-0.0953 3.20398,-0.10611 z"
     id="path4"
     style="stroke-width:0.235276" />
  <path
     fill="#d7ae2b"
     d="m 171.83087,93.963652 18.59641,8.721428 c 2.6365,1.2479 5.49439,2.28029 7.96785,3.8284 q -8.54498,4.28743 -17.14995,8.45368 c -3.01882,1.48083 -5.97317,3.13976 -9.08163,4.42742 0.52631,-0.91193 0.97969,-1.87115 1.14838,-2.91977 0.3141,-1.95561 -0.28186,-3.51831 -1.40107,-5.06713 0.11106,-2.928 -0.0297,-5.87083 -0.083,-8.79859 q -0.0621,-4.322728 0.003,-8.645438 z"
     id="path5"
     style="stroke-width:0.235276" />
  <path
     fill="#414361"
     d="m 100.01608,2.2e-5 c 4.78668,1.961733 9.49195,4.182026 14.20923,6.305151 l 23.25487,10.450232 60.77919,27.053153 c 0.52748,0.236927 1.33801,0.511959 1.73445,0.93263 l 0.006,0.0308 -16.74997,7.743149 c -3.52042,1.661758 -7.45329,3.747235 -11.09889,5.037257 -2.17465,-0.926047 -4.51964,-1.62999 -6.7517,-2.421461 q -6.51996,-2.329228 -13.06438,-4.589521 l -40.0653,-13.836548 c -0.2508,-0.645599 -0.48984,-1.182966 -0.9651,-1.705517 -2.61038,-2.86942 -7.48506,-3.494547 -11.12312,-3.713587 -0.0257,-0.02752 -0.0576,-0.05008 -0.0772,-0.08211 C 99.90441,30.876387 99.79501,2.360052 100.01566,0 Z"
     id="path6"
     style="stroke-width:0.235276" />
  <path
     fill="#d7ae2b"
     d="m 36.908601,79.883121 c 5.184761,2.026661 10.224361,4.634921 15.324434,6.885571 l 27.252435,11.94188 c 6.81028,3.012468 13.56387,6.160458 20.45885,8.976228 l 0.1614,-0.0738 c 1.55564,-0.50702 2.90942,-1.44601 4.40482,-2.09043 5.12336,-2.20689 10.19732,-4.48035 15.28045,-6.776638 q 20.63907,-9.35032 41.38261,-18.466299 c -0.008,3.023759 -0.20093,6.205859 0.0572,9.211509 0.63407,0.11622 1.2566,0.24256 1.74175,0.69147 0.52301,1.00863 0.0586,14.246638 0.025,16.213768 -0.02,1.17544 -0.35974,3.41456 0.15199,4.4126 -1.19379,1.25684 -1.87468,2.80001 -1.84033,4.55752 0.0336,1.72151 0.76583,3.31221 1.89091,4.59305 -0.41173,1.23425 -0.67453,2.54144 -1.15285,3.74747 -4.85608,1.67281 -9.54819,4.434 -14.21088,6.61642 l -34.80384,16.48057 c -4.51634,2.10737 -8.96564,4.5387 -13.59374,6.37197 -3.08376,-1.01945 -6.04635,-2.77155 -8.98493,-4.16343 L 70.389104,139.43495 1.420485,106.51943 c 1.232662,-0.84628 2.68986,-1.42012 4.047402,-2.03348 q 2.798836,-1.24508 5.566144,-2.55933 c 8.664491,-4.169548 17.54003,-8.171588 25.890658,-12.946738 0.139048,-3.00541 -0.0072,-6.08376 -0.016,-9.096689 z"
     id="path7"
     style="stroke-width:0.235276" />
  <path
     fill="#18583f"
     d="m 100.10572,107.61293 c 1.55564,-0.50703 2.90942,-1.44601 4.40482,-2.09043 5.12336,-2.20689 10.19732,-4.48035 15.28045,-6.776638 q 20.63907,-9.35032 41.38261,-18.466301 c -0.008,3.023751 -0.20093,6.205861 0.0572,9.211511 0.043,3.83169 0.56231,14.119808 -0.49737,17.336508 -0.45573,1.38318 -1.46718,2.67461 -2.47416,3.70253 -11.3758,11.61437 -41.4906,14.66683 -57.299,14.72189 q -0.50396,0.002 -1.00768,-0.005 l -0.008,-17.5605 z"
     id="path8"
     style="stroke-width:0.235276" />
  <path
     fill="#3e986b"
     d="m 36.908601,79.883121 c 5.184761,2.026661 10.224361,4.634921 15.324434,6.885571 l 27.252435,11.94188 c 6.81028,3.012468 13.56387,6.160458 20.45885,8.976228 l 0.008,17.56049 q -0.60914,0.0108 -1.2185,0.009 c -15.93685,-0.0238 -32.731053,-2.43651 -47.545888,-8.50615 -4.130026,-1.6921 -8.299811,-3.60819 -11.479559,-6.82958 -1.024158,-1.03733 -1.915613,-2.21911 -2.361932,-3.62183 -0.898047,-2.82425 -0.469848,-6.04846 -0.453848,-8.972698 l 0.03176,-8.34616 c 0.139048,-3.00542 -0.0072,-6.08376 -0.016,-9.096695 z"
     id="path9"
     style="stroke-width:0.235276" />
  <path
     fill="#1a1d41"
     d="m 0.013983,45.295268 c -0.03392,-0.1494 0.0016,-0.274096 0.02504,-0.423496 0.836783,-0.781591 11.891319,-5.41416 13.97798,-6.345614 L 76.63253,10.427903 91.95579,3.531745 c 2.08289,-0.952159 5.98305,-3.03694 8.0603,-3.531723 -0.22069,2.360052 -0.11129,30.876387 0.0885,31.20365 0.0195,0.032 0.0515,0.05456 0.0772,0.08211 3.63807,0.21904 8.51274,0.844167 11.12312,3.713587 0.47526,0.522551 0.7143,1.059918 0.9651,1.705517 l 40.0653,13.836548 q 6.54443,2.260533 13.06438,4.589521 c 2.23207,0.791471 4.57705,1.495414 6.75171,2.421461 -0.006,2.143589 0.0183,4.293065 -0.0882,6.43431 -0.3602,0.611247 -0.13927,26.859766 -0.23221,29.976926 q -0.0652,4.32271 -0.003,8.645438 c 0.0534,2.92776 0.1941,5.87059 0.083,8.79859 -0.94346,-0.85569 -1.8895,-1.40576 -3.13975,-1.70575 q -1.60341,0.0108 -3.20398,0.10611 c -0.89052,0.23599 -1.63517,0.49526 -2.41769,1.00087 -0.51173,-0.99804 -0.17199,-3.23716 -0.15199,-4.4126 0.0337,-1.96713 0.49808,-15.205138 -0.025,-16.213768 -0.48515,-0.44891 -1.10768,-0.57525 -1.74175,-0.69147 -0.2581,-3.00565 -0.0654,-6.18776 -0.0572,-9.211513 q -20.74354,9.115983 -41.38261,18.466303 c -5.08313,2.296288 -10.15709,4.569748 -15.28045,6.776638 -1.4954,0.64442 -2.84918,1.5834 -4.40482,2.09043 l -0.1614,0.0738 C 93.04937,104.87095 86.29578,101.72297 79.4855,98.710502 L 52.233035,86.768692 c -5.100073,-2.25065 -10.139673,-4.85891 -15.324434,-6.885571 l -0.07056,-12.235742 c -4.078266,-1.567406 -8.075364,-3.543715 -12.08775,-5.29064 L 0.080807,51.671698 c -0.0016,-2.142653 0.126976,-4.234481 -0.0668,-6.37643 z"
     id="path10"
     style="stroke-width:0.235276" />
  <path
     fill="#f45a35"
     d="m 100.18171,31.285784 c 3.63807,0.21904 8.51274,0.844167 11.12312,3.713587 0.47526,0.522551 0.7143,1.059918 0.9651,1.705517 -0.0278,0.43832 0.0217,1.120847 -0.13693,1.516822 l -0.11481,0.779935 c -0.75218,1.160142 -1.63352,1.938669 -2.78896,2.687084 -1.16932,0.435255 -2.29205,0.919687 -3.32021,1.63775 -0.0122,0.0064 -0.024,0.01368 -0.037,0.01832 -0.90463,0.335032 -2.00713,0.4642 -2.95882,0.577368 -3.91358,0.465375 -7.95091,0.266567 -11.65837,-1.155671 -1.65046,-0.633127 -2.96024,-1.445062 -3.70677,-3.124227 -0.0706,-0.502551 -0.0795,-1.030271 -0.11693,-1.537526 -0.0475,-0.269151 -0.0852,-0.537135 -0.0918,-0.810991 -0.0261,-1.099206 0.34609,-2.000549 1.12108,-2.779076 2.87319,-2.885651 7.90386,-3.197163 11.7212,-3.228923 z"
     id="path11"
     style="stroke-width:0.235276" />
  <path
     fill="#dd3d26"
     d="m 87.43119,38.104774 c 4.12908,3.502547 9.52748,4.229082 14.78448,3.802763 2.63555,-0.213632 5.46168,-0.692655 7.73821,-2.121717 0.49267,-0.309152 1.75963,-1.634694 2.10924,-1.659398 l 0.0699,0.09529 -0.11481,0.779935 c -0.75218,1.160142 -1.63352,1.938669 -2.78896,2.687084 -1.16932,0.435255 -2.29205,0.919687 -3.32021,1.63775 -0.0122,0.0064 -0.024,0.01368 -0.037,0.01832 -0.90463,0.335032 -2.00713,0.4642 -2.95882,0.577368 -3.91358,0.465375 -7.95091,0.266567 -11.65837,-1.155671 -1.65046,-0.633127 -2.96024,-1.445062 -3.70677,-3.124227 -0.0706,-0.502551 -0.0795,-1.030271 -0.11693,-1.537526 z"
     id="path12"
     style="stroke-width:0.235276" />
  <path
     fill="#0b0e2c"
     d="m 99.95537,95.423542 c 1.71517,-0.93805 3.65101,-1.60271 5.42899,-2.42993 l 13.52881,-6.26962 41.99833,-18.823925 0.20986,0.768407 c 0.0172,3.86793 -0.0219,7.744332 0.0522,11.611087 q -20.74353,9.115981 -41.38261,18.466301 c -5.08313,2.296288 -10.15708,4.569748 -15.28044,6.776638 -1.4954,0.64442 -2.84918,1.5834 -4.40482,2.09043 -0.40374,-0.87147 -0.1527,-10.474478 -0.15035,-12.189388 z"
     id="path13"
     style="stroke-width:0.235276" />
  <path
     fill="#fefdfd"
     d="m 112.26993,36.704888 40.0653,13.836548 q 6.54443,2.260533 13.06438,4.589521 c 2.23207,0.791471 4.57705,1.495414 6.75171,2.421461 -0.006,2.143589 0.0183,4.293065 -0.0882,6.43431 -0.3602,0.611247 -0.13927,26.859764 -0.23221,29.976924 q -0.0652,4.32271 -0.003,8.645438 c 0.0534,2.92776 0.1941,5.87059 0.0831,8.79859 -0.94346,-0.85569 -1.8895,-1.40576 -3.13975,-1.70575 q -1.60341,0.0108 -3.20398,0.10611 c -0.89052,0.23599 -1.63517,0.49526 -2.41769,1.00087 -0.51173,-0.99804 -0.17199,-3.23716 -0.15199,-4.4126 0.0337,-1.96713 0.49808,-15.205138 -0.025,-16.213768 -0.48515,-0.44891 -1.10768,-0.57525 -1.74175,-0.69147 -0.2581,-3.00565 -0.0654,-6.18776 -0.0572,-9.211511 -0.0741,-3.866755 -0.035,-7.743157 -0.0522,-11.611087 -0.009,-0.379264 -0.067,-0.881575 0.11811,-1.226959 0.30209,-0.563719 1.11261,-0.737119 1.67375,-0.937806 0.0642,-1.110271 0.0553,-2.215589 0.0463,-3.327035 q -18.79686,-6.86275 -37.7076,-13.404589 c -6.43385,-2.196997 -12.94157,-4.147202 -19.34295,-6.445606 1.02816,-0.718063 2.15089,-1.202495 3.32021,-1.63775 1.15544,-0.748415 2.03678,-1.526942 2.78896,-2.687084 l 0.11481,-0.779935 c 0.15858,-0.395975 0.10917,-1.078502 0.13693,-1.516822 z"
     id="path14"
     style="stroke-width:0.235276" />
  <path
     fill="#fbc92c"
     d="m 112.26993,36.704888 40.0653,13.836548 q 6.54443,2.260533 13.06438,4.589521 c 2.23207,0.791471 4.57705,1.495414 6.75171,2.421461 -0.006,2.143589 0.0183,4.293065 -0.0882,6.43431 -0.3602,0.611247 -0.13927,26.859764 -0.23221,29.976924 q -0.0652,4.32271 -0.003,8.645438 c 0.0534,2.92776 0.1941,5.87059 0.0831,8.79859 -0.94346,-0.85569 -1.8895,-1.40576 -3.13975,-1.70575 q 0.22257,-25.392578 0.0308,-50.785626 c -2.33417,-0.926751 -4.75822,-1.697278 -7.12721,-2.533445 L 148.00223,51.563714 Q 130.07471,45.097396 112.01802,39.001645 l 0.11482,-0.779935 c 0.15857,-0.395975 0.10916,-1.078502 0.13692,-1.516822 z"
     id="path15"
     style="stroke-width:0.235276" />
  <path
     fill="#fbc92c"
     d="m 105.90902,43.326479 c 1.02816,-0.718063 2.15089,-1.202495 3.32021,-1.63775 l 39.06939,13.447876 9.77475,3.426787 c 2.53016,0.882751 5.05302,1.70175 7.49658,2.81366 l 0.0223,27.26114 c -0.02,7.05991 -0.10728,14.108528 -0.0252,21.169848 -0.89052,0.23599 -1.63517,0.49526 -2.41769,1.00087 -0.51173,-0.99804 -0.17199,-3.23716 -0.15199,-4.4126 0.0337,-1.96713 0.49808,-15.205138 -0.025,-16.213768 -0.48515,-0.44891 -1.10768,-0.57525 -1.74175,-0.69147 -0.2581,-3.00565 -0.0654,-6.18776 -0.0572,-9.211511 -0.0741,-3.866755 -0.035,-7.743157 -0.0522,-11.611087 -0.009,-0.379264 -0.067,-0.881575 0.11811,-1.226959 0.30209,-0.563719 1.11261,-0.737119 1.67375,-0.937806 0.0642,-1.110271 0.0553,-2.215589 0.0463,-3.327035 q -18.79686,-6.86275 -37.7076,-13.404589 c -6.43385,-2.196997 -12.94157,-4.147202 -19.34295,-6.445606 z"
     id="path16"
     style="stroke-width:0.235276" />
  <path
     fill="#414361"
     d="m 0.013983,45.295268 c 4.946321,1.850909 9.708762,4.226721 14.539915,6.357142 l 31.893945,14.178644 q 13.822436,6.104455 27.751688,11.959998 10.669039,4.39283 21.229849,9.03999 c 1.49871,0.65806 3.04188,1.23378 4.52882,1.91303 l 7.1e-4,-42.147494 c -0.71924,0.0096 -1.45495,0.06424 -2.16148,-0.08588 1.06886,-0.0092 2.14759,0.0032 3.2141,-0.06632 1.53494,-0.09976 3.09505,-0.431495 4.62481,-0.13176 1.98431,0.38868 3.94016,1.340838 5.84942,2.011141 l 12.47078,4.31377 20.58779,7.102734 c 2.66496,0.906286 5.34216,1.766917 7.98924,2.725668 1.32319,0.479495 2.71579,0.926046 3.94557,1.618229 q -19.00532,7.989485 -37.81136,16.437752 -4.99631,2.273 -9.95827,4.62035 c -2.87506,1.34695 -5.71343,2.72307 -8.74754,3.68182 l -0.008,6.61759 c -2.78378,-1.54435 -5.81342,-2.61414 -8.73719,-3.86158 L 76.81298,85.355422 36.837785,67.647403 c -4.078266,-1.567406 -8.075364,-3.543715 -12.08775,-5.29064 L 0.080551,51.671722 c -0.0016,-2.142653 0.126976,-4.234481 -0.0668,-6.37643 z"
     id="path17"
     style="stroke-width:0.235276" />
  <path
     fill="#575977"
     d="m 0.013983,45.295268 c -0.03392,-0.1494 0.0016,-0.274096 0.02504,-0.423496 0.836783,-0.781591 11.891319,-5.41416 13.97798,-6.345614 L 76.63253,10.427903 91.95579,3.531745 c 2.08289,-0.952159 5.98305,-3.03694 8.0603,-3.531723 -0.22069,2.360052 -0.11129,30.876387 0.0885,31.20365 0.0195,0.032 0.0515,0.05456 0.0772,0.08211 -3.81734,0.03176 -8.848,0.343272 -11.72119,3.228923 -0.77499,0.778527 -1.1472,1.67987 -1.12109,2.779076 0.006,0.273856 0.0442,0.54184 0.0918,0.810991 0.0374,0.507255 0.0463,1.034975 0.11693,1.537526 -0.37126,0.696415 -0.50442,1.431414 -0.25362,2.196765 0.4602,1.404366 2.10547,2.359348 3.37314,2.957883 2.28406,1.078511 4.61728,1.560822 7.12979,1.71375 0.70653,0.150104 1.44224,0.09552 2.16148,0.08588 l -7.1e-4,42.147496 c -1.48694,-0.67925 -3.03011,-1.25497 -4.52882,-1.91303 Q 84.86861,82.183882 74.199571,77.791052 60.270319,71.935509 46.447883,65.831054 L 14.553938,51.65241 C 9.722785,49.521989 4.960344,47.146177 0.014023,45.295268 Z"
     id="path18"
     style="stroke-width:0.235276" />
</svg>
