<?xml version="1.0" encoding="UTF-8"?>
<svg version="1.1" xmlns="http://www.w3.org/2000/svg" width="251" height="76">
<path d="M0 0 C0.495 15.345 0.495 15.345 1 31 C5.01503926 24.40840992 5.01503926 24.40840992 9.01611328 17.80834961 C18.47800243 2.3997092 18.47800243 2.3997092 26 0 C29.96908106 -0.33260044 33.89581606 -0.28305922 37.875 -0.1875 C38.94492188 -0.17396484 40.01484375 -0.16042969 41.1171875 -0.14648438 C43.74531511 -0.11128624 46.37239194 -0.06204693 49 0 C47.66811259 3.56454713 46.08183951 6.71513246 44.09375 9.95703125 C43.51898926 10.89796631 42.94422852 11.83890137 42.35205078 12.80834961 C41.43528564 14.29540405 41.43528564 14.29540405 40.5 15.8125 C39.87722168 16.82900635 39.25444336 17.8455127 38.61279297 18.89282227 C33.45826089 27.292923 28.25273049 35.66098777 23 44 C24.08925781 44.42152344 25.17851563 44.84304687 26.30078125 45.27734375 C29.38074119 46.6072737 31.19306692 47.79710959 33.1875 50.5625 C33.74953125 51.33851562 34.3115625 52.11453125 34.890625 52.9140625 C35.58671875 53.93242188 36.2828125 54.95078125 37 56 C37.48791016 56.70866211 37.97582031 57.41732422 38.47851562 58.14746094 C40.14179129 60.57066434 41.79259615 63.00179087 43.4375 65.4375 C43.98237061 66.24324463 44.52724121 67.04898926 45.08862305 67.87915039 C45.59433838 68.6396167 46.10005371 69.40008301 46.62109375 70.18359375 C47.0792749 70.86993896 47.53745605 71.55628418 48.00952148 72.26342773 C49 74 49 74 49 76 C44.73208708 76.27402638 40.46894004 76.47239009 36.19482422 76.60424805 C34.74502363 76.65924048 33.29582427 76.73407754 31.84814453 76.82983398 C27.08241687 77.13692946 22.67209265 77.18913201 18 76 C14.40529563 72.77648793 12.14492933 69.30264709 10 65 C9.47269287 65.75740479 8.94538574 66.51480957 8.40209961 67.29516602 C3.125 74.875 3.125 74.875 2 76 C0.01242972 76.09983058 -1.9786752 76.13080753 -3.96875 76.1328125 C-5.17917969 76.13410156 -6.38960937 76.13539062 -7.63671875 76.13671875 C-8.91160156 76.13285156 -10.18648437 76.12898438 -11.5 76.125 C-12.77488281 76.12886719 -14.04976562 76.13273437 -15.36328125 76.13671875 C-16.57371094 76.13542969 -17.78414062 76.13414063 -19.03125 76.1328125 C-20.15080078 76.13168457 -21.27035156 76.13055664 -22.42382812 76.12939453 C-25 76 -25 76 -26 75 C-26.81336838 67.40310935 -26.88130883 59.70575634 -27.06656265 52.07052898 C-27.15412848 48.53719268 -27.27707567 45.01339222 -27.48828125 41.48510742 C-28.81653454 18.73842613 -28.81653454 18.73842613 -24.15112305 12.54595947 C-19.68331611 8.58069165 -14.69323679 6.05985171 -9.16589355 3.87808228 C-5.99994237 2.59456323 -3.43267926 0 0 0 Z " fill="#65C3BF" transform="translate(26,0)"/>
<path d="M0 0 C1.99168407 37.13724752 1.99168407 37.13724752 -8.45458984 49.10253906 C-11.55764531 52.91248331 -13.99327124 57.19592821 -16.5625 61.375 C-17.58290265 62.98807659 -18.60490225 64.6001447 -19.62890625 66.2109375 C-20.84270565 68.12371405 -21.98688975 69.9737795 -23 72 C-23.99 72 -24.98 72 -26 72 C-26.44324086 64.77801467 -26.77919527 57.55901354 -26.98443127 50.32611465 C-27.08309978 46.9634186 -27.22648048 43.61709944 -27.43334961 40.25830078 C-28.73631696 18.54755681 -28.73631696 18.54755681 -24.15435791 12.60717773 C-19.66925941 8.679597 -14.66414233 6.13185016 -9.16690063 3.90124512 C-6.01296235 2.58947685 -3.43579915 0 0 0 Z " fill="#183846" transform="translate(26,0)"/>
<path d="M0 0 C4.1994942 -0.04597986 8.39811065 -0.08578332 12.59765625 -0.10986328 C14.02542078 -0.11990427 15.45316483 -0.13353981 16.88085938 -0.15087891 C18.93624941 -0.17521152 20.99136692 -0.18650202 23.046875 -0.1953125 C24.28276367 -0.20578613 25.51865234 -0.21625977 26.79199219 -0.22705078 C29.83637591 -0.0115807 31.50604124 0.29522135 34 2 C35.29462437 4.58924875 35.09735083 6.48625324 35.0625 9.375 C35.05347656 10.33148438 35.04445312 11.28796875 35.03515625 12.2734375 C35.02355469 13.17320313 35.01195312 14.07296875 35 15 C35 16.32 35 17.64 35 19 C35 22 35 25 35 28 C32.03 28 29.06 28 26 28 C26 26.02 26 24.04 26 22 C20.72 21.67 15.44 21.34 10 21 C10 22.98 10 24.96 10 27 C9.67 27.33 9.34 27.66 9 28 C6.03 28 3.06 28 0 28 C0 18.76 0 9.52 0 0 Z M10 8 C10 11.3 10 14.6 10 18 C10.66 16.68 11.32 15.36 12 14 C12.92683594 14.01160156 13.85367188 14.02320313 14.80859375 14.03515625 C16.60490234 14.04869141 16.60490234 14.04869141 18.4375 14.0625 C20.22994141 14.07990234 20.22994141 14.07990234 22.05859375 14.09765625 C24.88873341 14.33901792 24.88873341 14.33901792 26 13 C26 11.35 26 9.7 26 8 C20.72 8 15.44 8 10 8 Z " fill="#193947" transform="translate(215,25)"/>
<path d="M0 0 C8.7610962 2.07909263 12.86409837 10.8767588 17.453125 17.91796875 C18.19586843 19.0350017 18.93935225 20.15154273 19.68359375 21.26757812 C25.078125 29.44945066 25.078125 29.44945066 25.078125 31.73046875 C20.81030553 32.02940007 16.54814856 32.24576692 12.27294922 32.38964844 C10.82297651 32.44964731 9.37371969 32.53129718 7.92626953 32.63574219 C3.1343224 32.97259857 -1.23536735 33.00325252 -5.921875 31.73046875 C-9.78336177 28.28365601 -12.33364619 24.67179873 -13.921875 19.73046875 C-13.22363281 17.06079102 -13.22363281 17.06079102 -11.921875 14.73046875 C-11.60573242 14.11905029 -11.28958984 13.50763184 -10.96386719 12.87768555 C-9.88885864 11.0433665 -8.78678936 9.22830627 -7.671875 7.41796875 C-7.30191406 6.77279297 -6.93195312 6.12761719 -6.55078125 5.46289062 C-4.64948395 2.39680539 -3.56161616 0.89040404 0 0 Z " fill="#193847" transform="translate(49.921875,44.26953125)"/>
<path d="M0 0 C1.08925781 -0.020625 2.17851562 -0.04125 3.30078125 -0.0625 C4.35394531 -0.06765625 5.40710938 -0.0728125 6.4921875 -0.078125 C7.93247314 -0.09214355 7.93247314 -0.09214355 9.40185547 -0.10644531 C12.63890996 0.31726811 14.50043713 1.33777741 17.125 3.25 C19.17130611 6.898835 19.3961137 10.1117154 19.375 14.25 C19.38273437 15.7659375 19.38273437 15.7659375 19.390625 17.3125 C19.03252264 21.27269082 18.35923128 24.07355941 15.43041992 26.86523438 C10.77776913 29.65987965 4.96890371 28.76105474 -0.3125 28.75 C-2.15424805 28.79253906 -2.15424805 28.79253906 -4.03320312 28.8359375 C-12.87266218 28.8551851 -12.87266218 28.8551851 -17.1875 26.25 C-19.42967328 22.26391416 -19.58129575 19.25041821 -19.4375 14.75 C-19.44845703 14.00363281 -19.45941406 13.25726563 -19.47070312 12.48828125 C-19.4193681 8.62104301 -19.11566972 6.63669976 -17.02734375 3.28125 C-12.37089118 -1.1132243 -6.02486761 0.028319 0 0 Z M-9.875 9.25 C-9.92895478 10.87463842 -9.96777195 12.49978541 -10 14.125 C-10.02320313 15.02992187 -10.04640625 15.93484375 -10.0703125 16.8671875 C-10.11824836 19.43806994 -10.11824836 19.43806994 -7.875 21.25 C-5.34707337 21.47555081 -2.96444424 21.57438591 -0.4375 21.5625 C0.24376953 21.57861328 0.92503906 21.59472656 1.62695312 21.61132812 C4.51905739 21.61416074 6.61688036 21.57860432 9.08203125 19.984375 C10.99996802 16.79499699 10.35672051 13.89959809 10.125 10.25 C9.795 9.59 9.465 8.93 9.125 8.25 C5.93343552 7.18614517 3.54002524 7.08322018 0.1875 7.0625 C-0.85277344 7.04832031 -1.89304688 7.03414062 -2.96484375 7.01953125 C-5.82546613 7.24607718 -7.45170151 7.77266381 -9.875 9.25 Z " fill="#193847" transform="translate(186.875,24.75)"/>
<path d="M0 0 C4.5375 -0.04125 9.075 -0.0825 13.75 -0.125 C15.17538086 -0.14320801 16.60076172 -0.16141602 18.06933594 -0.18017578 C19.19629883 -0.1851709 20.32326172 -0.19016602 21.484375 -0.1953125 C22.63647461 -0.20578613 23.78857422 -0.21625977 24.97558594 -0.22705078 C27.93070136 -0.00520243 29.56286457 0.35981213 32 2 C34.25891556 5.95310223 34.32023739 9.51667657 34 14 C33.02515446 17.13343209 32.32377005 18.67622995 30 21 C27.84521484 21.22705078 27.84521484 21.22705078 25.2109375 21.1953125 C24.26992187 21.18886719 23.32890625 21.18242188 22.359375 21.17578125 C21.37453125 21.15902344 20.3896875 21.14226563 19.375 21.125 C18.38242188 21.11597656 17.38984375 21.10695313 16.3671875 21.09765625 C13.91121866 21.07404116 11.45572832 21.04110799 9 21 C9 23.31 9 25.62 9 28 C6.03 28 3.06 28 0 28 C0 18.76 0 9.52 0 0 Z M9 8 C9 11.63 9 15.26 9 19 C9.99 18.01 10.98 17.02 12 16 C12 15.34 12 14.68 12 14 C15.96 14 19.92 14 24 14 C25.39770584 10.25308553 25.39770584 10.25308553 24 8 C19.05 8 14.1 8 9 8 Z " fill="#193847" transform="translate(123,25)"/>
<path d="M0 0 C1.65322266 0.01740234 1.65322266 0.01740234 3.33984375 0.03515625 C4.44457031 0.04417969 5.54929687 0.05320312 6.6875 0.0625 C7.54214844 0.07410156 8.39679688 0.08570312 9.27734375 0.09765625 C11.27934696 3.59849963 13.27291444 7.10399475 15.25878906 10.61401367 C15.93552209 11.80738013 16.61454538 12.99945085 17.29589844 14.19018555 C18.2748984 15.90200837 19.24499674 17.61891243 20.21484375 19.3359375 C21.09462891 20.88341675 21.09462891 20.88341675 21.9921875 22.4621582 C23.27734375 25.09765625 23.27734375 25.09765625 23.27734375 28.09765625 C20.14962913 28.58827815 17.380869 28.8034747 14.27734375 28.09765625 C11.98805806 25.71429032 10.61265009 23.10377304 9.27734375 20.09765625 C8.90996094 20.58878906 8.54257813 21.07992187 8.1640625 21.5859375 C5.46902099 23.74531858 3.4902516 23.39484683 0.08984375 23.28515625 C-0.99683594 23.25808594 -2.08351563 23.23101562 -3.203125 23.203125 C-4.45029297 23.15091797 -4.45029297 23.15091797 -5.72265625 23.09765625 C-6.71265625 25.57265625 -6.71265625 25.57265625 -7.72265625 28.09765625 C-11.02265625 28.09765625 -14.32265625 28.09765625 -17.72265625 28.09765625 C-16.07795493 21.94295635 -12.83834212 16.74568846 -9.66015625 11.28515625 C-8.82774414 9.83592773 -8.82774414 9.83592773 -7.97851562 8.35742188 C-3.22340551 0.11561713 -3.22340551 0.11561713 0 0 Z M2.27734375 8.09765625 C1.61734375 9.21140625 0.95734375 10.32515625 0.27734375 11.47265625 C-0.09390625 12.09914063 -0.46515625 12.725625 -0.84765625 13.37109375 C-1.87333973 15.07238292 -1.87333973 15.07238292 -1.72265625 17.09765625 C1.57734375 17.09765625 4.87734375 17.09765625 8.27734375 17.09765625 C6.62734375 14.12765625 4.97734375 11.15765625 3.27734375 8.09765625 C2.94734375 8.09765625 2.61734375 8.09765625 2.27734375 8.09765625 Z " fill="#193847" transform="translate(87.72265625,24.90234375)"/>
<path d="M0 0 C0.33 1.32 0.66 2.64 1 4 C-1.64 3.67 -4.28 3.34 -7 3 C-7 4.32 -7 5.64 -7 7 C-5.35 7.33 -3.7 7.66 -2 8 C-2 7.34 -2 6.68 -2 6 C-1.01 6 -0.02 6 1 6 C0.125 9.875 0.125 9.875 -1 11 C-7.2080292 11.45985401 -7.2080292 11.45985401 -9.9375 9.875 C-11.52225401 7.07837528 -11.45947423 5.1506804 -11 2 C-7.8024827 -1.96492145 -4.62667537 -0.97871979 0 0 Z " fill="#193A48" transform="translate(179,62)"/>
<path d="M0 0 C2.25 0 2.25 0 5 1 C7.05695657 3.99014453 9 7.313902 9 11 C7.68 10.67 6.36 10.34 5 10 C5 9.34 5 8.68 5 8 C2.52733235 8.34444881 2.52733235 8.34444881 0 9 C-0.33 9.66 -0.66 10.32 -1 11 C-1.99 11 -2.98 11 -4 11 C-3.39301257 6.87248551 -1.96189209 3.6678852 0 0 Z M2 3 C1.67 3.99 1.34 4.98 1 6 C1.66 6 2.32 6 3 6 C2.67 5.01 2.34 4.02 2 3 Z " fill="#193A48" transform="translate(229,62)"/>
<path d="M0 0 C3.3 0 6.6 0 10 0 C10.625 2.375 10.625 2.375 11 5 C9 7 9 7 5.875 7.125 C4.92625 7.08375 3.9775 7.0425 3 7 C3 8.32 3 9.64 3 11 C2.01 11 1.02 11 0 11 C0 7.37 0 3.74 0 0 Z M3 2 C3 2.66 3 3.32 3 4 C4.65 4 6.3 4 8 4 C8 3.34 8 2.68 8 2 C6.35 2 4.7 2 3 2 Z " fill="#193947" transform="translate(196,62)"/>
<path d="M0 0 C1.859375 0.25390625 1.859375 0.25390625 4 1 C5.265625 2.77734375 5.265625 2.77734375 6.25 4.9375 C6.58515625 5.64777344 6.9203125 6.35804687 7.265625 7.08984375 C8 9 8 9 8 11 C7.01 11 6.02 11 5 11 C4.67 10.34 4.34 9.68 4 9 C2.35 9 0.7 9 -1 9 C-1.33 9.66 -1.66 10.32 -2 11 C-2.99 11 -3.98 11 -5 11 C-3.77472971 6.94718288 -2.30119506 3.55639236 0 0 Z M1 3 C0.67 3.99 0.34 4.98 0 6 C0.99 5.67 1.98 5.34 3 5 C2.34 4.34 1.68 3.68 1 3 Z " fill="#193947" transform="translate(186,62)"/>
<path d="M0 0 C0.99 0.33 1.98 0.66 3 1 C-3 11 -3 11 -4.65625 13.6875 C-5.90793652 15.84156518 -6.54950533 17.56732876 -7 20 C-8.32 19.67 -9.64 19.34 -11 19 C-9.41467191 14.44435939 -7.00996919 10.68524231 -4.375 6.6875 C-3.95476563 6.04232422 -3.53453125 5.39714844 -3.1015625 4.73242188 C-2.07161759 3.15239276 -1.03634372 1.57583953 0 0 Z " fill="#112832" transform="translate(47,45)"/>
<path d="M0 0 C0.99 0 1.98 0 3 0 C3 2.64 3 5.28 3 8 C5.64 8 8.28 8 11 8 C11 8.99 11 9.98 11 11 C7.37 11 3.74 11 0 11 C0 7.37 0 3.74 0 0 Z " fill="#193A48" transform="translate(239,62)"/>
<path d="M0 0 C4.29 0 8.58 0 13 0 C13 0.66 13 1.32 13 2 C11.35 2 9.7 2 8 2 C8 4.97 8 7.94 8 11 C7.01 11 6.02 11 5 11 C5 8.03 5 5.06 5 2 C3.35 2 1.7 2 0 2 C0 1.34 0 0.68 0 0 Z " fill="#193947" transform="translate(213,62)"/>
<path d="M0 0 C0.99 0 1.98 0 3 0 C3 3.63 3 7.26 3 11 C2.01 11 1.02 11 0 11 C0 7.37 0 3.74 0 0 Z " fill="#1A3C4A" transform="translate(209,62)"/>
</svg>
